<?xml version="1.0" standalone="no"?>
<!DOCTYPE svg PUBLIC "-//W3C//DTD SVG 20010904//EN"
 "http://www.w3.org/TR/2001/REC-SVG-20010904/DTD/svg10.dtd">
<svg version="1.0" xmlns="http://www.w3.org/2000/svg"
 width="256.000000pt" height="256.000000pt" viewBox="0 0 256.000000 256.000000"
 preserveAspectRatio="xMidYMid meet">
<metadata>
Created by potrace 1.14, written by Peter Selinger 2001-2017
</metadata>
<g transform="translate(0.000000,256.000000) scale(0.100000,-0.100000)"
fill="#000000" stroke="none">
<path d="M0 1280 l0 -1280 1280 0 1280 0 0 1280 0 1280 -1280 0 -1280 0 0
-1280z m1353 1227 c17 -18 17 -30 2 -44 -10 -10 -14 -9 -19 3 -3 9 -1 12 4 9
13 -8 13 1 0 26 -12 22 -4 25 13 6z m-63 -84 c0 -14 7 -35 17 -45 15 -17 15
-19 0 -36 -20 -22 -22 -73 -5 -90 9 -9 9 -12 0 -12 -7 0 -12 -7 -12 -15 0 -18
-16 -20 -23 -2 -4 8 -8 9 -14 1 -5 -6 -61 -11 -141 -11 -74 -1 -136 -4 -140
-7 -3 -3 -11 -1 -17 4 -8 7 -27 7 -53 2 -35 -8 -40 -7 -34 7 31 86 193 193
334 220 78 16 88 14 88 -16z m191 3 c54 -16 141 -59 182 -90 35 -25 107 -114
106 -130 0 -6 -2 -7 -5 -1 -4 9 -253 10 -311 1 -27 -4 -33 10 -44 89 -11 74
-11 73 -3 113 7 36 11 37 75 18z m-123 -58 c2 -15 -3 -28 -11 -31 -16 -6 -17
9 -3 32 5 8 3 17 -5 23 -12 8 -11 9 1 5 8 -2 16 -15 18 -29z m2 -108 c0 -13
-5 -18 -15 -14 -11 5 -12 9 -2 20 16 18 17 17 17 -6z m-195 -199 c56 -26 97
-71 117 -128 l16 -48 -40 -6 c-58 -8 -78 -37 -78 -109 0 -43 5 -64 21 -84 11
-14 15 -26 9 -26 -6 0 -8 -4 -5 -10 3 -5 -24 -24 -59 -41 -37 -18 -68 -40 -72
-51 -3 -11 -12 -17 -19 -14 -8 3 -16 0 -19 -7 -2 -7 -5 -4 -5 7 -1 14 -4 16
-14 8 -10 -9 -19 -7 -35 4 -12 8 -22 12 -22 8 0 -11 -29 29 -30 40 0 6 7 1 15
-10 14 -18 15 -17 4 8 -7 15 -15 26 -19 25 -5 -1 -7 1 -6 5 0 4 -8 14 -19 22
-12 10 -15 15 -7 16 10 0 10 4 -2 15 -22 23 -31 100 -16 148 7 23 14 47 15 52
2 6 4 -3 5 -20 l1 -30 11 25 c5 14 14 33 19 42 5 10 6 24 3 32 -3 8 -1 17 5
21 7 4 9 -1 6 -12 -3 -10 0 -7 7 7 7 14 21 33 32 42 17 16 17 18 2 24 -27 10
-18 24 27 44 53 25 101 25 152 1z m498 -95 c52 -19 106 -62 113 -92 12 -47
-27 -172 -61 -196 -6 -5 -6 -8 2 -8 8 0 8 -6 0 -24 -7 -13 -15 -22 -19 -20 -5
3 -8 1 -8 -4 0 -9 -67 -40 -102 -47 -9 -2 -33 6 -55 17 -21 12 -58 32 -83 45
l-45 23 40 -5 c22 -3 33 -2 25 1 -34 15 -41 26 -24 38 9 7 18 33 21 58 4 37 1
53 -16 77 -13 18 -32 31 -44 32 -12 0 -16 3 -9 6 7 3 24 15 37 27 37 34 55 47
55 41 0 -3 5 -3 11 1 8 4 5 10 -7 17 -17 10 -17 11 1 18 32 12 127 9 168 -5z
m-375 -118 c7 -7 12 -16 12 -20 0 -15 -27 -8 -45 12 -18 19 -17 20 1 20 11 0
25 -5 32 -12z m142 -28 c6 -11 7 -20 2 -20 -5 0 -17 9 -27 20 -16 18 -16 20
-2 20 9 0 21 -9 27 -20z m35 -211 c59 -22 80 -47 71 -85 -7 -28 -85 -119 -103
-120 -29 -2 -33 -5 -33 -19 0 -8 -7 -15 -16 -15 -9 0 -12 -5 -8 -12 5 -10 4
-10 -6 -1 -7 6 -18 9 -24 7 -6 -2 -22 5 -35 17 -38 36 -36 11 3 -27 20 -19 34
-40 31 -45 -11 -17 -60 19 -135 101 -83 91 -90 99 -90 119 0 8 17 -5 38 -30
52 -61 104 -109 114 -103 14 9 9 22 -9 28 -11 3 -19 17 -19 31 -1 15 -10 36
-20 47 -19 21 -19 21 4 16 12 -4 20 -2 16 3 -3 5 -15 9 -27 10 -21 1 -21 1 2
8 23 6 22 8 -17 25 -23 10 -39 23 -36 27 10 17 101 38 171 38 50 1 89 -5 128
-20z m232 -110 c93 -51 202 -205 252 -354 43 -128 68 -306 51 -365 -7 -25 -13
-63 -13 -85 l0 -40 -5 35 c-5 34 -5 34 -13 10 -8 -23 -8 -22 -5 5 3 17 1 37
-5 45 -6 10 -9 -4 -10 -45 -1 -45 -3 -54 -9 -35 -8 25 -8 25 -10 -5 -2 -27 -3
-28 -9 -7 l-6 24 -24 -26 c-14 -14 -30 -26 -38 -26 -7 0 -13 -6 -13 -14 0 -8
-8 -15 -17 -14 -10 0 -54 -3 -98 -6 -102 -9 -503 -11 -705 -4 -147 5 -209 13
-220 28 -7 9 -76 50 -85 50 -4 0 -5 -15 -1 -32 4 -23 3 -28 -4 -17 -5 9 -12
36 -15 60 -4 32 -3 38 4 24 7 -14 10 -15 10 -5 0 8 -3 22 -8 29 -8 12 -11 8
-16 -15 -11 -47 -13 -51 -14 -21 -1 16 -5 26 -9 23 -9 -5 -10 2 -18 109 -3 44
-1 75 3 69 4 -7 9 19 10 57 3 120 58 275 141 395 40 58 122 146 122 130 0 -5
7 -3 15 4 11 9 21 7 47 -13 18 -14 47 -29 63 -32 45 -10 116 -61 153 -110 18
-23 50 -55 72 -70 33 -23 46 -26 77 -20 44 8 96 60 150 150 34 55 93 132 93
121 0 -3 10 -1 23 4 33 13 43 12 84 -11z m-1180 -117 c-10 -10 -14 -22 -10
-27 5 -4 3 -5 -4 -2 -6 4 -22 -6 -35 -21 -13 -15 -30 -32 -38 -37 -8 -4 8 17
35 47 28 31 54 56 59 57 5 1 2 -7 -7 -17z m1668 -50 c-3 -3 -14 7 -26 21 -11
15 -27 27 -35 27 -8 0 -12 5 -8 11 4 7 19 -2 40 -22 19 -18 32 -35 29 -37z
m71 -68 c1 -9 0 -13 -4 -10 -3 4 -7 14 -8 22 -1 9 0 13 4 10 3 -4 7 -14 8 -22z
m-1883 -14 c-13 -5 -23 -15 -23 -21 0 -7 -3 -9 -6 -6 -10 10 16 37 35 36 11 0
9 -3 -6 -9z m1924 -16 c-9 -9 -28 6 -21 18 4 6 10 6 17 -1 6 -6 8 -13 4 -17z
m-1993 -43 c-15 -17 -30 -29 -32 -26 -3 3 -12 -1 -21 -8 -14 -11 -14 -10 -2 5
7 10 16 16 20 14 4 -3 17 9 30 25 13 16 26 28 28 25 3 -2 -8 -18 -23 -35z
m2040 20 c14 -15 15 -21 4 -27 -7 -4 -10 -4 -6 1 4 4 -3 16 -15 26 -12 10 -17
18 -11 19 6 0 19 -9 28 -19z m66 -66 l35 -40 -37 34 c-21 19 -38 39 -38 45 0
5 1 7 3 5 1 -2 18 -22 37 -44z m-2172 -19 c-10 -7 -16 -16 -13 -19 3 -4 2 -5
-2 -2 -3 3 -13 -1 -22 -7 -9 -7 -5 0 8 15 14 15 29 27 35 27 6 0 3 -7 -6 -14z
m674 -648 c106 -49 141 -154 72 -223 -17 -17 -36 -25 -59 -25 -19 0 -35 -4
-35 -8 0 -5 -26 -5 -57 -1 -32 5 -111 9 -175 10 -129 2 -140 7 -152 65 -10 45
19 108 66 145 89 71 231 87 340 37z m1080 14 c111 -37 181 -123 162 -199 -5
-20 -16 -37 -24 -39 -8 -1 -40 -7 -70 -14 -30 -6 -116 -13 -191 -17 -131 -6
-138 -5 -168 16 -63 45 -75 127 -29 187 20 24 81 60 128 75 45 14 136 9 192
-9z"/>
<path d="M1225 1049 c-44 -12 -102 -65 -127 -112 -27 -55 -21 -147 14 -209 14
-24 24 -51 23 -60 -2 -10 2 -21 8 -25 7 -3 9 -3 5 2 -4 4 -2 15 5 23 6 9 7 13
1 9 -6 -3 -11 0 -11 8 0 13 4 12 19 -2 20 -18 24 -28 6 -17 -7 4 -8 3 -4 -4 4
-6 14 -8 23 -5 11 4 14 2 9 -5 -5 -8 22 -11 103 -9 61 2 113 6 117 9 3 4 13 4
22 2 13 -4 12 -2 -2 6 -15 10 -20 9 -27 -1 -6 -10 -9 -10 -9 -2 0 15 35 35 45
25 5 -4 5 -2 1 5 -3 6 -2 14 4 18 41 25 64 156 39 222 -36 96 -159 153 -264
122z m213 -73 c28 -33 52 -89 52 -126 0 -37 -24 -93 -52 -126 -41 -46 -81 -66
-139 -68 -38 -1 -53 4 -73 23 -54 51 -20 161 49 161 48 0 91 26 110 66 17 36
17 42 3 81 -14 40 -14 42 2 33 9 -5 31 -25 48 -44z m-117 5 c21 -17 22 -22 11
-45 -10 -23 -18 -27 -45 -24 -27 3 -32 7 -35 33 -3 19 2 33 14 42 23 17 27 17
55 -6z"/>
<path d="M1262 778 c-20 -20 -14 -66 9 -79 33 -17 69 3 69 39 0 33 -16 52 -45
52 -12 0 -26 -5 -33 -12z"/>
<path d="M651 784 c0 -11 3 -14 6 -6 3 7 2 16 -1 19 -3 4 -6 -2 -5 -13z"/>
<path d="M676 785 c-3 -9 -6 -26 -5 -38 1 -14 4 -9 9 13 9 37 7 52 -4 25z"/>
</g>
</svg>
